<svg version="1.1" viewBox="0.0 0.0 960.0 960.0" fill="none" stroke="none" stroke-linecap="square" stroke-miterlimit="10" xmlns:xlink="http://www.w3.org/1999/xlink" xmlns="http://www.w3.org/2000/svg"><clipPath id="p.0"><path d="m0 0l960.0 0l0 960.0l-960.0 0l0 -960.0z" clip-rule="nonzero"/></clipPath><g clip-path="url(#p.0)"><path fill="#000000" fill-opacity="0.0" d="m0 0l960.0 0l0 960.0l-960.0 0z" fill-rule="evenodd"/><path fill="#ffffff" d="m0 480.0l0 0c0 -265.09668 214.90332 -480.0 480.0 -480.0l0 0c127.303894 0 249.3938 50.571285 339.41125 140.58875c90.017456 90.017456 140.58875 212.10733 140.58875 339.41125l0 0c0 265.09668 -214.90332 480.0 -480.0 480.0l0 0c-265.09668 0 -480.0 -214.90332 -480.0 -480.0zm82.9344 0l0 0c0 219.29327 177.77232 397.0656 397.0656 397.0656c219.29327 0 397.0656 -177.77234 397.0656 -397.0656l0 0c0 -219.29327 -177.77234 -397.0656 -397.0656 -397.0656l0 0c-219.29327 0 -397.0656 177.77232 -397.0656 397.0656z" fill-rule="evenodd"/><path fill="#ffffff" d="m434.7244 480.0l0 0c0 -25.005005 20.2706 -45.275604 45.275604 -45.275604l257.29132 0c12.007874 0 23.523865 4.770111 32.01471 13.260925c8.490784 8.490814 13.260925 20.006836 13.260925 32.01468l0 0l0 0c0 25.005005 -20.270569 45.275574 -45.275635 45.275574l-257.29132 0l0 0c-25.005005 0 -45.275604 -20.270569 -45.275604 -45.275574z" fill-rule="evenodd"/><path fill="#ffffff" d="m480.0 525.2756l0 0c-25.005005 0 -45.275604 -20.270569 -45.275604 -45.275574l0 -257.29132c0 -12.007843 4.770111 -23.523865 13.260925 -32.01468c8.490814 -8.490814 20.006836 -13.26091 32.01468 -13.26091l0 0l0 0c25.005005 0 45.275574 20.270569 45.275574 45.27559l0 257.29132l0 0c0 25.005005 -20.270569 45.275574 -45.275574 45.275574z" fill-rule="evenodd"/></g></svg>