<svg version="1.1" viewBox="0.0 0.0 17.0 17.0" fill="none" stroke="none" stroke-linecap="square" stroke-miterlimit="10" xmlns:xlink="http://www.w3.org/1999/xlink" xmlns="http://www.w3.org/2000/svg"><clipPath id="p.0"><path d="m0 0l17.0 0l0 17.0l-17.0 0l0 -17.0z" clip-rule="nonzero"/></clipPath><g clip-path="url(#p.0)"><path fill="#000000" fill-opacity="0.0" d="m0 0l17.0 0l0 17.0l-17.0 0z" fill-rule="evenodd"/><path fill="#FFF" d="m0 8.503937l0 0c0 -4.696594 3.8073423 -8.503937 8.503937 -8.503937l0 0c2.2553844 0 4.418394 0.89594793 6.013192 2.4907455c1.5947981 1.5947976 2.4907446 3.7578073 2.4907446 6.013191l0 0c0 4.696595 -3.8073416 8.503937 -8.503937 8.503937l0 0c-4.696594 0 -8.503937 -3.8073416 -8.503937 -8.503937zm1.4693103 0l0 0c0 3.8851175 3.1495094 7.034627 7.0346265 7.034627c3.8851175 0 7.034627 -3.1495094 7.034627 -7.034627l0 0c0 -3.885117 -3.1495094 -7.0346265 -7.034627 -7.0346265l0 0c-3.885117 0 -7.0346265 3.1495094 -7.0346265 7.0346265z" fill-rule="evenodd"/><path fill="#FFF" d="m7.698245 8.501394l0 0c0 -0.44356728 0.35958195 -0.8031492 0.8031492 -0.8031492l4.535433 0c0.21300888 0 0.41729355 0.08461714 0.56791306 0.23523712c0.1506195 0.1506195 0.23523712 0.35490417 0.23523712 0.5679121l0 0l0 0c0 0.44356728 -0.3595829 0.8031502 -0.8031502 0.8031502l-4.535433 0l0 0c-0.44356728 0 -0.8031492 -0.3595829 -0.8031492 -0.8031502z" fill-rule="evenodd"/><path fill="#FFF" d="m8.501394 9.301755l0 0c-0.44356728 0 -0.8031492 -0.35958195 -0.8031492 -0.8031492l0 -4.566929c0 -0.2130084 0.08461714 -0.41729283 0.23523712 -0.5679126c0.1506195 -0.15061975 0.35490417 -0.23523712 0.5679121 -0.23523712l0 0l0 0c0.44356728 0 0.8031502 0.35958242 0.8031502 0.8031497l0 4.566929l0 0c0 0.44356728 -0.3595829 0.8031492 -0.8031502 0.8031492z" fill-rule="evenodd"/></g></svg>