<svg width="153" height="153" viewBox="0 0 153 153" fill="none" xmlns="http://www.w3.org/2000/svg">
<path d="M44.625 114.75V108.375C44.625 99.9212 47.9832 91.8137 53.961 85.836C59.9387 79.8582 68.0462 76.5 76.5 76.5M76.5 76.5C84.9538 76.5 93.0613 79.8582 99.039 85.836C105.017 91.8137 108.375 99.9212 108.375 108.375V114.75M76.5 76.5C81.5723 76.5 86.4368 74.4851 90.0234 70.8984C93.6101 67.3118 95.625 62.4473 95.625 57.375C95.625 52.3027 93.6101 47.4382 90.0234 43.8516C86.4368 40.265 81.5723 38.25 76.5 38.25C71.4277 38.25 66.5632 40.265 62.9766 43.8516C59.3899 47.4382 57.375 52.3027 57.375 57.375C57.375 62.4473 59.3899 67.3118 62.9766 70.8984C66.5632 74.4851 71.4277 76.5 76.5 76.5ZM6.375 114.75V108.375C6.375 103.303 8.38995 98.4382 11.9766 94.8516C15.5632 91.2649 20.4277 89.25 25.5 89.25M25.5 89.25C28.8815 89.25 32.1245 87.9067 34.5156 85.5156C36.9067 83.1245 38.25 79.8815 38.25 76.5C38.25 73.1185 36.9067 69.8755 34.5156 67.4844C32.1245 65.0933 28.8815 63.75 25.5 63.75C22.1185 63.75 18.8755 65.0933 16.4844 67.4844C14.0933 69.8755 12.75 73.1185 12.75 76.5C12.75 79.8815 14.0933 83.1245 16.4844 85.5156C18.8755 87.9067 22.1185 89.25 25.5 89.25ZM146.625 114.75V108.375C146.625 103.303 144.61 98.4382 141.023 94.8516C137.437 91.2649 132.572 89.25 127.5 89.25M127.5 89.25C130.882 89.25 134.125 87.9067 136.516 85.5156C138.907 83.1245 140.25 79.8815 140.25 76.5C140.25 73.1185 138.907 69.8755 136.516 67.4844C134.125 65.0933 130.882 63.75 127.5 63.75C124.118 63.75 120.875 65.0933 118.484 67.4844C116.093 69.8755 114.75 73.1185 114.75 76.5C114.75 79.8815 116.093 83.1245 118.484 85.5156C120.875 87.9067 124.118 89.25 127.5 89.25Z" stroke="#00FF00" stroke-width="1.5" stroke-linecap="round" stroke-linejoin="round"/>
</svg>
