<svg width="32" height="25" viewBox="0 0 32 25" fill="none" xmlns="http://www.w3.org/2000/svg">
<path d="M3.2 25C2.32 25 1.56693 24.6943 0.9408 24.0828C0.314667 23.4714 0.00106667 22.7354 0 21.875V3.125C0 2.26562 0.3136 1.53021 0.9408 0.91875C1.568 0.307291 2.32107 0.00104167 3.2 0H28.8C29.68 0 30.4336 0.30625 31.0608 0.91875C31.688 1.53125 32.0011 2.26667 32 3.125V21.875C32 22.7344 31.6869 23.4703 31.0608 24.0828C30.4347 24.6953 29.6811 25.001 28.8 25H3.2ZM16 14.0625L28.8 6.25V3.125L16 10.9375L3.2 3.125V6.25L16 14.0625Z" fill="#F2F2F2"/>
</svg>
