<svg width="32" height="31" viewBox="0 0 32 31" fill="none" xmlns="http://www.w3.org/2000/svg">
<path d="M9.28 0H22.72C27.84 0 32 4.03 32 8.99V22.01C32 24.3943 31.0223 26.6809 29.282 28.3669C27.5416 30.0528 25.1812 31 22.72 31H9.28C4.16 31 0 26.97 0 22.01V8.99C0 6.6057 0.977712 4.31906 2.71805 2.63311C4.45839 0.947158 6.81879 0 9.28 0ZM8.96 3.1C7.43235 3.1 5.96727 3.68789 4.88707 4.73434C3.80686 5.7808 3.2 7.20009 3.2 8.68V22.32C3.2 25.4045 5.776 27.9 8.96 27.9H23.04C24.5676 27.9 26.0327 27.3121 27.1129 26.2657C28.1931 25.2192 28.8 23.7999 28.8 22.32V8.68C28.8 5.5955 26.224 3.1 23.04 3.1H8.96ZM24.4 5.425C24.9304 5.425 25.4391 5.62913 25.8142 5.99248C26.1893 6.35583 26.4 6.84864 26.4 7.3625C26.4 7.87636 26.1893 8.36917 25.8142 8.73252C25.4391 9.09587 24.9304 9.3 24.4 9.3C23.8696 9.3 23.3609 9.09587 22.9858 8.73252C22.6107 8.36917 22.4 7.87636 22.4 7.3625C22.4 6.84864 22.6107 6.35583 22.9858 5.99248C23.3609 5.62913 23.8696 5.425 24.4 5.425ZM16 7.75C18.1217 7.75 20.1566 8.56651 21.6569 10.0199C23.1571 11.4733 24 13.4446 24 15.5C24 17.5554 23.1571 19.5267 21.6569 20.9801C20.1566 22.4335 18.1217 23.25 16 23.25C13.8783 23.25 11.8434 22.4335 10.3431 20.9801C8.84285 19.5267 8 17.5554 8 15.5C8 13.4446 8.84285 11.4733 10.3431 10.0199C11.8434 8.56651 13.8783 7.75 16 7.75ZM16 10.85C14.727 10.85 13.5061 11.3399 12.6059 12.212C11.7057 13.084 11.2 14.2667 11.2 15.5C11.2 16.7333 11.7057 17.916 12.6059 18.788C13.5061 19.6601 14.727 20.15 16 20.15C17.273 20.15 18.4939 19.6601 19.3941 18.788C20.2943 17.916 20.8 16.7333 20.8 15.5C20.8 14.2667 20.2943 13.084 19.3941 12.212C18.4939 11.3399 17.273 10.85 16 10.85Z" fill="#F2F2F2"/>
</svg>
