<svg width="67" height="65" viewBox="0 0 67 65" fill="none" xmlns="http://www.w3.org/2000/svg">
<path d="M14.3575 37.917C12.2628 34.5891 11.1584 30.7636 11.1667 26.8643C11.1667 15.018 21.1664 5.41699 33.5 5.41699C45.8336 5.41699 55.8333 15.018 55.8333 26.8643C55.8416 30.7636 54.7372 34.5891 52.6425 37.917M41.875 51.4587L41.5121 53.211C41.1213 55.1257 40.923 56.0818 40.4792 56.8401C39.7952 58.0089 38.6878 58.8893 37.372 59.3101C36.5206 59.5837 35.51 59.5837 33.5 59.5837C31.49 59.5837 30.4794 59.5837 29.628 59.3128C28.3118 58.8913 27.2043 58.0099 26.5208 56.8401C26.077 56.0818 25.8788 55.1257 25.4879 53.211L25.125 51.4587M20.6109 46.3074C20.354 45.5599 20.2256 45.1835 20.2396 44.8801C20.2554 44.5665 20.3645 44.264 20.5538 44.0093C20.743 43.7545 21.0043 43.5584 21.306 43.4447C21.5963 43.3337 22.0039 43.3337 22.8135 43.3337H44.1865C44.9989 43.3337 45.4037 43.3337 45.694 43.442C45.9961 43.5559 46.2577 43.7524 46.447 44.0077C46.6363 44.2629 46.7452 44.566 46.7604 44.8801C46.7744 45.1835 46.646 45.5572 46.3891 46.3074C45.9145 47.6914 45.6773 48.3847 45.3115 48.9453C44.5466 50.117 43.3476 50.9594 41.9615 51.2989C41.2971 51.4587 40.549 51.4587 39.0498 51.4587H27.9502C26.451 51.4587 25.7001 51.4587 25.0385 51.2962C23.6529 50.9573 22.4539 50.116 21.6885 48.9453C21.3228 48.3847 21.0855 47.6914 20.6109 46.3074Z" stroke="#4ECB71" stroke-width="1.5" stroke-linecap="round" stroke-linejoin="round"/>
<path d="M23.0313 26.4063L29.3125 32.5V43.3333M43.9688 26.4063L37.6875 32.5V43.3333M23.0313 28.4375C23.5865 28.4375 24.1191 28.2235 24.5118 27.8426C24.9044 27.4616 25.125 26.945 25.125 26.4063C25.125 25.8675 24.9044 25.3509 24.5118 24.9699C24.1191 24.589 23.5865 24.375 23.0313 24.375C22.476 24.375 21.9434 24.589 21.5507 24.9699C21.1581 25.3509 20.9375 25.8675 20.9375 26.4063C20.9375 26.945 21.1581 27.4616 21.5507 27.8426C21.9434 28.2235 22.476 28.4375 23.0313 28.4375ZM43.9688 28.4375C43.4135 28.4375 42.8809 28.2235 42.4882 27.8426C42.0956 27.4616 41.875 26.945 41.875 26.4063C41.875 25.8675 42.0956 25.3509 42.4882 24.9699C42.8809 24.589 43.4135 24.375 43.9688 24.375C44.524 24.375 45.0566 24.589 45.4493 24.9699C45.8419 25.3509 46.0625 25.8675 46.0625 26.4063C46.0625 26.945 45.8419 27.4616 45.4493 27.8426C45.0566 28.2235 44.524 28.4375 43.9688 28.4375Z" stroke="#4ECB71" stroke-width="1.5" stroke-linecap="round" stroke-linejoin="round"/>
</svg>
