<svg width="118" height="122" viewBox="0 0 118 122" fill="none" xmlns="http://www.w3.org/2000/svg">
<path d="M118 88.3448V79.931H110.006C109.511 77.2983 108.564 74.7948 107.216 72.5563L112.888 66.288L107.506 60.3395L101.834 66.6078C99.8082 65.1194 97.5431 64.0741 95.1613 63.5283V54.6896H87.5484V63.5283C85.1665 64.0741 82.9014 65.1194 80.8757 66.6078L75.204 60.3395L69.8217 66.288L75.4933 72.5563C74.1453 74.7948 73.1982 77.2983 72.7032 79.931H64.7097V88.3448H72.7032C73.198 91.0246 74.1649 93.515 75.4895 95.7195L69.8179 101.988L75.2002 107.936L80.8719 101.668C82.8984 103.158 85.1649 104.205 87.5484 104.752V113.586H95.1613V104.752C97.5431 104.206 99.8082 103.161 101.834 101.672L107.506 107.94L112.888 101.992L107.216 95.7237C108.565 93.4839 109.512 90.979 110.006 88.3448H118ZM91.3548 96.7586C88.3262 96.7586 85.4217 95.4289 83.2801 93.0621C81.1386 90.6952 79.9355 87.4851 79.9355 84.1379C79.9355 80.7907 81.1386 77.5805 83.2801 75.2137C85.4217 72.8469 88.3262 71.5172 91.3548 71.5172C94.3834 71.5172 97.288 72.8469 99.4295 75.2137C101.571 77.5805 102.774 80.7907 102.774 84.1379C102.774 87.4851 101.571 90.6952 99.4295 93.0621C97.288 95.4289 94.3834 96.7586 91.3548 96.7586Z" fill="#00FF00"/>
<path d="M79.9355 21.0345C79.9355 9.43606 71.3976 0 60.9032 0C54.1277 0 47.8128 4.0302 44.4213 10.5172C43.209 12.8487 42.3961 15.4072 42.0232 18.0644C37.5346 14.5255 32.1588 12.6225 26.6452 12.6207C11.9523 12.6207 0 25.8303 0 42.0689C0.00481966 47.4603 1.34874 52.7468 3.88524 57.352C6.42175 61.9573 10.0535 65.7045 14.3846 68.1853C10.2774 72.0473 7.6129 77.7266 7.6129 84.1379C7.6129 95.7363 16.1508 105.172 26.6452 105.172C29.4391 105.172 32.077 104.466 34.4674 103.262C35.5218 113.767 43.5077 122 53.2903 122C55.7908 122.007 58.2677 121.467 60.578 120.41C62.8883 119.353 64.986 117.8 66.7499 115.841L61.3638 109.888C60.3062 111.064 59.048 111.996 57.6622 112.631C56.2764 113.266 54.7904 113.59 53.2903 113.586C46.9944 113.586 41.871 107.924 41.871 100.965C41.871 94.0073 46.9944 88.3448 53.2903 88.3448V79.931C50.4926 79.931 47.8585 80.642 45.4681 81.8409C44.9306 76.5346 42.5873 71.6528 38.9134 68.1853C43.243 65.7034 46.8732 61.9556 49.4083 57.3505C51.9434 52.7453 53.2862 47.4595 53.2903 42.0689C53.2903 41.4505 53.237 40.8447 53.2028 40.2347C55.5628 41.3958 58.1588 42.0689 60.9032 42.0689C71.3976 42.0689 79.9355 32.6329 79.9355 21.0345ZM51.0064 14.7241C52.0123 12.8072 53.4556 11.2156 55.1923 10.1082C56.929 9.00089 58.8982 8.41662 60.9032 8.41379C67.1991 8.41379 72.3226 14.0763 72.3226 21.0345C72.3226 27.9927 67.1991 33.6552 60.9032 33.6552C54.6074 33.6552 49.4839 27.9927 49.4839 21.0345H49.3697C49.5067 18.6113 50.0244 16.6088 51.0064 14.7241ZM38.0645 84.1379C38.0645 91.0961 32.941 96.7586 26.6452 96.7586C20.3493 96.7586 15.2258 91.0961 15.2258 84.1379C15.2258 77.1797 20.3493 71.5172 26.6452 71.5172C32.941 71.5172 38.0645 77.1797 38.0645 84.1379ZM26.6452 63.1034C16.1508 63.1034 7.6129 53.6673 7.6129 42.0689C7.6129 30.4705 16.1508 21.0345 26.6452 21.0345C37.1395 21.0345 45.6774 30.4705 45.6774 42.0689C45.6774 53.6673 37.1395 63.1034 26.6452 63.1034Z" fill="#00FF00"/>
</svg>
