<svg width="123" height="123" viewBox="0 0 123 123" fill="none" xmlns="http://www.w3.org/2000/svg">
<path d="M29.725 20.2899C24.436 23.698 14.8266 20.0849 10.906 25.8095C9.71187 27.552 10.3012 29.8582 11.48 34.4707L21.6787 84.5574C23.985 93.5671 25.133 98.072 28.7154 100.701C30.176 101.777 31.6879 102.28 33.3125 102.5M29.725 20.2899C36.818 15.7133 30.6987 10.25 41 10.25L52.0444 18.9266C56.4467 22.3809 58.6454 24.1131 58.8094 26.5526C58.9734 28.9973 57.031 31.037 53.1411 35.1114L50.3019 38.0839C48.3595 40.1185 47.3857 41.1384 46.2224 41.0513C45.059 40.9641 44.2287 39.811 42.5836 37.5099L29.725 20.2899ZM93.275 20.2899C98.564 23.698 108.173 20.0849 112.094 25.8095C113.288 27.552 112.699 29.8582 111.52 34.4707L101.321 84.5574C99.015 93.5671 97.867 98.072 94.2897 100.701C92.824 101.777 91.307 102.28 89.6875 102.5M93.275 20.2899C86.182 15.7133 92.3012 10.25 82 10.25L70.9556 18.9266C66.5532 22.3809 64.3546 24.1131 64.1906 26.5526C64.0266 28.9973 65.969 31.037 69.8589 35.1114L72.6981 38.0839C74.6405 40.1185 75.6142 41.1384 76.7776 41.0513C77.941 40.9641 78.7712 39.811 80.4164 37.5099L93.275 20.2899ZM52.7209 35.875L57.1796 43.3165C58.2302 45.059 58.753 45.9405 58.9119 46.9194C59.0656 47.9034 58.835 48.8976 58.3789 50.881L48.9437 91.9476C47.6779 99.0509 51.4294 102.505 55.0732 107.066C58.1021 110.859 59.6191 112.75 61.5051 112.75C63.3911 112.75 64.9081 110.854 67.937 107.061C71.5757 102.51 75.3324 99.0509 74.0665 91.9476L64.6262 50.881C64.1701 48.8976 63.9446 47.9034 64.0984 46.9194C64.2521 45.9405 64.78 45.0641 65.8255 43.3165L70.2842 35.875" stroke="#00FF00" stroke-width="1.5" stroke-linecap="round" stroke-linejoin="round"/>
</svg>
